<svg width="25" height="26" viewBox="0 0 25 26" fill="none" xmlns="http://www.w3.org/2000/svg">
<path d="M12.9287 6.95447H12.9293C12.9299 6.95491 12.9299 6.95491 12.9299 6.95491L12.9287 6.95447Z" fill="#4B4B4B"/>
<path d="M19.3867 14.735C19.8714 14.1442 20.4531 13.2139 20.3796 12.2083L15.3875 7.21625C15.3875 7.21625 14.4833 6.99218 13.4028 7.22675C13.2464 7.12465 13.0882 7.03163 12.929 6.95453C12.1199 6.56147 11.3127 6.47236 10.7082 6.47817C10.6694 6.47817 10.6325 6.47997 10.5953 6.4811L9.66934 7.40702L9.81377 7.39252C9.83076 7.39106 9.85615 7.38637 9.87275 7.38241C9.89522 7.37699 10.2543 7.29408 10.7646 7.29482C11.2222 7.29482 11.7974 7.36322 12.3686 7.59887C12.045 7.76757 11.7253 7.99052 11.4271 8.28881C9.77681 9.9391 8.27671 11.4392 8.27671 11.4392L8.27744 11.4399C8.26841 11.4489 8.25938 11.4565 8.25029 11.4656C7.8228 11.8927 7.80654 12.5747 8.20107 13.0221C8.21626 13.0391 8.23296 13.0573 8.25029 13.0746C8.69409 13.5188 9.41445 13.5195 9.85933 13.0746L11.5921 11.3418C11.8907 11.4508 12.1847 11.5148 12.4667 11.5467C12.8503 11.5901 13.212 11.5738 13.5327 11.5286C14.3149 11.4178 14.6863 11.3005 14.6863 11.3005L18.7706 15.3851C18.7706 15.3851 18.7937 15.3649 18.8289 15.3327L19.4189 15.9227C19.5727 16.0769 19.6477 16.2749 19.648 16.4769C19.6477 16.6782 19.5724 16.8765 19.4186 17.0307C19.2644 17.1842 19.0667 17.2595 18.8651 17.2599C18.6634 17.2595 18.4654 17.1842 18.3112 17.0307C18.2352 16.9547 18.1299 16.9109 18.0224 16.9112C17.9145 16.9109 17.8095 16.9547 17.7335 17.0307C17.6575 17.1067 17.6141 17.2117 17.6141 17.3196C17.6141 17.427 17.6575 17.532 17.7335 17.6084C17.8874 17.7622 17.9626 17.9603 17.963 18.1622C17.9626 18.3635 17.8874 18.5619 17.7332 18.7158C17.5789 18.8696 17.381 18.9449 17.1797 18.9456C16.9777 18.9449 16.7801 18.8696 16.6258 18.7158C16.5499 18.6401 16.4445 18.5963 16.337 18.5967C16.2291 18.5963 16.1241 18.6401 16.0481 18.7158C15.9721 18.7921 15.9287 18.8971 15.9287 19.005C15.9287 19.1121 15.9722 19.2175 16.0481 19.2938C16.202 19.4476 16.2772 19.6457 16.2776 19.847C16.2772 20.0489 16.202 20.2473 16.0481 20.4008C15.8939 20.555 15.6959 20.6303 15.4943 20.6307C15.2927 20.6303 15.0947 20.555 14.9405 20.4008L14.5948 20.0555C14.5944 20.0547 14.5937 20.054 14.593 20.0533C14.5173 19.9776 14.4116 19.9338 14.3045 19.9338C14.1966 19.9338 14.0916 19.9776 14.0156 20.0539C13.9396 20.1293 13.8958 20.235 13.8958 20.3425C13.8958 20.45 13.9396 20.5549 14.0156 20.631C14.1694 20.7851 14.2447 20.9835 14.2451 21.1855C14.2444 21.3868 14.1691 21.5851 14.0153 21.739C13.8614 21.8928 13.6634 21.9681 13.4618 21.9685C13.2598 21.9681 13.0618 21.8928 12.908 21.739L12.6622 21.4932L12.7472 21.4085C13.1895 20.9662 13.1899 20.2491 12.7476 19.8067C12.3052 19.3644 11.5881 19.3644 11.1458 19.8067L11.0607 19.8918L11.0184 19.8498C11.2363 19.4238 11.1719 18.8913 10.8156 18.5351C10.4595 18.1789 9.927 18.1145 9.50093 18.3324L9.41655 18.248C9.63447 17.8223 9.57041 17.2898 9.21421 16.9337C8.85806 16.5775 8.3252 16.5131 7.89951 16.7309L7.81514 16.6466C8.03306 16.2209 7.96899 15.6884 7.61279 15.3323C7.25625 14.9761 6.72378 14.9117 6.29805 15.1295L5.88901 14.7205L5.86401 14.6974C5.8604 14.6945 5.79814 14.6409 5.70259 14.5453C5.65083 14.4935 5.58892 14.4288 5.52124 14.3531L5.5209 14.3527L5.51182 14.343L5.51328 14.3448C5.29863 14.1037 5.02891 13.7525 4.8291 13.3399C4.70493 13.0836 4.60791 12.8063 4.5605 12.5157L3.88867 13.1875C3.94766 13.3664 4.0168 13.5376 4.09429 13.6965C4.34009 14.2018 4.65391 14.6073 4.90366 14.8878L4.90479 14.89L4.91382 14.8997L4.91343 14.8987C4.9916 14.9859 5.06328 15.0608 5.1252 15.1231C5.22183 15.2194 5.29209 15.2824 5.32178 15.308L5.67832 15.6646L5.02022 16.3227C4.57783 16.765 4.57822 17.4818 5.02022 17.9242C5.46255 18.3664 6.17925 18.3664 6.62197 17.9242C6.17925 18.3664 6.17959 19.0836 6.62197 19.5259C7.06431 19.9679 7.78101 19.9679 8.22339 19.5259C7.78101 19.9679 7.78101 20.6854 8.22339 21.1274C8.66606 21.5697 9.38281 21.5697 9.82515 21.1274L10.4829 20.4696L10.1553 20.7976C9.7126 21.24 9.71289 21.9567 10.1553 22.399C10.5977 22.8414 11.314 22.8414 11.7567 22.399L12.0843 22.0711L12.3301 22.3168C12.6414 22.6286 13.0533 22.7863 13.4616 22.7856C13.8696 22.7863 14.2815 22.6286 14.5928 22.3168C14.8538 22.0559 15.0055 21.7243 15.0482 21.3837C15.1937 21.426 15.3439 21.4477 15.4941 21.4477C15.9024 21.4477 16.314 21.2907 16.6257 20.9786C16.937 20.6673 17.0948 20.2554 17.0945 19.8477C17.0945 19.8177 17.0916 19.788 17.0901 19.7583C17.1198 19.7598 17.1499 19.7623 17.1795 19.7623C17.5875 19.763 17.9994 19.6052 18.3107 19.2935C18.6224 18.9819 18.7798 18.5703 18.7795 18.1623C18.7795 18.1323 18.7773 18.1023 18.7755 18.0726C18.8052 18.0744 18.8349 18.077 18.8649 18.077C19.2729 18.077 19.6849 17.9199 19.9958 17.6086C20.3078 17.2969 20.4652 16.8853 20.4649 16.477C20.4656 16.0687 20.3082 15.6568 19.9965 15.3455L19.3867 14.735Z" fill="#4B4B4B"/>
<path d="M6.76587 3.37952L0 10.1449L2.80537 12.9507L9.57153 6.18484L6.76587 3.37952ZM3.38271 10.5576C3.10942 10.8313 2.66602 10.8313 2.39268 10.5576C2.11938 10.2846 2.11938 9.84089 2.39268 9.56794C2.66597 9.29426 3.10942 9.29426 3.38271 9.56794C3.6564 9.84089 3.6564 10.2847 3.38271 10.5576Z" fill="#4B4B4B"/>
<path d="M18.2344 3.21448L15.4287 6.0198L22.1949 12.7856L25.0002 9.9803L18.2344 3.21448ZM21.6172 10.393C21.3439 10.1197 21.3439 9.6759 21.6172 9.40295C21.8908 9.12927 22.3339 9.12927 22.6076 9.40295C22.8809 9.67585 22.8809 10.1197 22.6076 10.393C22.3339 10.6663 21.8908 10.6663 21.6172 10.393Z" fill="#4B4B4B"/>
</svg>
