<svg width="25" height="26" viewBox="0 0 25 26" fill="none" xmlns="http://www.w3.org/2000/svg">
<g clip-path="url(#clip0_15_159)">
<path d="M18.4774 0.5H10.1707H9.52744L9.07241 0.95415L2.78325 7.24326L2.3291 7.6978V8.34111V21.3057C2.3291 23.618 4.21064 25.5 6.52344 25.5H18.4775C20.7894 25.5 22.6709 23.6181 22.6709 21.3057V4.69346C22.6709 2.38105 20.7894 0.5 18.4774 0.5ZM21.118 21.3057C21.118 22.7644 19.9358 23.9471 18.4775 23.9471H6.52344C5.0647 23.9471 3.88203 22.7644 3.88203 21.3057V8.34116H7.96987C9.18481 8.34116 10.1707 7.35566 10.1707 6.14028V2.05283H18.4775C19.9358 2.05283 21.118 3.23555 21.118 4.69341V21.3057Z" fill="#4B4B4B"/>
<path d="M16.7342 8.2843C16.3598 8.54636 15.9039 8.70115 15.4133 8.70115C14.9223 8.70115 14.4668 8.54636 14.092 8.2843C13.4368 8.56628 13.0344 9.06077 12.7888 9.49753C12.4627 10.0768 12.7184 10.8969 13.2816 10.8969C13.8456 10.8969 15.4133 10.8969 15.4133 10.8969C15.4133 10.8969 16.9806 10.8969 17.5446 10.8969C18.1082 10.8969 18.3643 10.0768 18.0378 9.49753C17.7922 9.06072 17.3898 8.56628 16.7342 8.2843Z" fill="#4B4B4B"/>
<path d="M15.4132 8.15249C16.3762 8.15249 17.1561 7.37266 17.1561 6.41006V5.99238C17.1561 5.03066 16.3762 4.24951 15.4132 4.24951C14.4506 4.24951 13.6699 5.03066 13.6699 5.99238V6.41006C13.6699 7.37266 14.4506 8.15249 15.4132 8.15249Z" fill="#4B4B4B"/>
<path d="M18.0676 13.2135H6.81787V14.3058H18.0676V13.2135Z" fill="#4B4B4B"/>
<path d="M18.0676 16.4906H6.81787V17.5834H18.0676V16.4906Z" fill="#4B4B4B"/>
<path d="M14.6929 19.7681H6.81787V20.86H14.6929V19.7681Z" fill="#4B4B4B"/>
</g>
<defs>
<clipPath id="clip0_15_159">
<rect width="25" height="25" fill="white" transform="translate(0 0.5)"/>
</clipPath>
</defs>
</svg>
