<svg width="30" height="32" viewBox="0 0 30 32" fill="none" xmlns="http://www.w3.org/2000/svg">
<path d="M10.6544 25.557C12.6607 25.557 14.1564 24.2088 14.1564 22.1701C14.1564 20.7063 13.3344 19.7364 12.6771 19.457V19.4241C13.4991 18.8816 13.926 18.0428 13.926 17.1056C13.926 15.2968 12.7262 14.0146 10.638 14.0146C8.82917 14.0146 7.59573 15.0506 7.34898 16.3988C7.33261 16.497 7.38173 16.5795 7.48098 16.5958L8.87829 16.925C8.97754 16.9413 9.04311 16.9086 9.07586 16.8098C9.27342 16.1193 9.75042 15.6587 10.5724 15.6587C11.5091 15.6587 12.068 16.2836 12.068 17.1716C12.068 18.158 11.4272 18.7993 10.4404 18.7993H9.99617C9.89786 18.7993 9.83236 18.8648 9.83236 18.9636V20.2626C9.83236 20.3615 9.89786 20.427 9.99617 20.427H10.4732C11.5747 20.427 12.2984 21.1179 12.2984 22.2521C12.2984 23.2061 11.6903 23.913 10.6544 23.913C9.73311 23.913 9.19055 23.3868 8.96023 22.7291C8.92748 22.6304 8.84561 22.5976 8.76367 22.614L7.33261 22.9431C7.23436 22.9759 7.18517 23.0578 7.20161 23.1566C7.54655 24.6858 8.91111 25.557 10.6544 25.557Z" fill="#4B4B4B"/>
<path d="M17.5445 17.5989L19.254 16.3987H19.2868V25.2119C19.2868 25.3106 19.3533 25.3762 19.4516 25.3762H20.9645C21.0628 25.3762 21.1283 25.3107 21.1283 25.2119V14.3596C21.1283 14.2614 21.0628 14.1953 20.9645 14.1953H19.5662C19.4352 14.1953 19.3533 14.2281 19.2704 14.2941L17.4789 15.5931C17.396 15.6586 17.3633 15.7246 17.3633 15.8229V17.5001C17.3633 17.6318 17.4453 17.6645 17.5445 17.5989Z" fill="#4B4B4B"/>
<path d="M6.41328 5.58106C7.00591 5.58106 7.48678 5.10069 7.48678 4.508V1.073C7.48678 0.480375 7.00591 0 6.41328 0C5.8206 0 5.33972 0.480375 5.33972 1.07306V4.50806C5.33972 5.10069 5.8206 5.58106 6.41328 5.58106Z" fill="#4B4B4B"/>
<path d="M14.9995 5.58106C15.5921 5.58106 16.073 5.10069 16.073 4.508V1.073C16.073 0.480375 15.5921 0 14.9995 0C14.4068 0 13.9264 0.480375 13.9264 1.07306V4.50806C13.9264 5.10069 14.4068 5.58106 14.9995 5.58106Z" fill="#4B4B4B"/>
<path d="M25.6876 2.80664H25.5179V4.50845C25.5179 5.57333 24.6516 6.44008 23.5858 6.44008C22.5209 6.44008 21.6537 5.57327 21.6537 4.50845V2.80664H16.9317V4.50845C16.9317 5.57333 16.0649 6.44008 14.9996 6.44008C13.9347 6.44008 13.0679 5.57327 13.0679 4.50845V2.80664H8.34539V4.50845C8.34539 5.57333 7.47857 6.44008 6.41326 6.44008C5.34839 6.44008 4.48114 5.57327 4.48114 4.50845V2.80664H4.31251C1.99539 2.80664 0.116699 4.68527 0.116699 7.00245V27.8046C0.116699 30.1218 1.99532 32.0005 4.31251 32.0005H25.6876C28.0043 32.0005 29.8834 30.1218 29.8834 27.8046V7.00245C29.8834 4.68533 28.0042 2.80664 25.6876 2.80664ZM28.1651 27.4861C28.1651 29.0309 26.9133 30.2832 25.3686 30.2832H4.63145C3.0867 30.2832 1.83395 29.0309 1.83395 27.4861V7.95845H28.1651V27.4861Z" fill="#4B4B4B"/>
<path d="M23.5858 5.58106C24.1785 5.58106 24.6593 5.10069 24.6593 4.508V1.073C24.6593 0.480375 24.1784 0 23.5858 0C22.9931 0 22.5122 0.480375 22.5122 1.07306V4.50806C22.5122 5.10069 22.9931 5.58106 23.5858 5.58106Z" fill="#4B4B4B"/>
</svg>
