<svg width="25" height="26" viewBox="0 0 25 26" fill="none" xmlns="http://www.w3.org/2000/svg">
<g clip-path="url(#clip0_29_34)">
<path d="M13.9066 12.6305C13.1836 13.1364 12.3052 13.4341 11.3581 13.4341C10.4105 13.4341 9.53198 13.1364 8.80908 12.6305C7.54507 13.1729 6.76826 14.1276 6.29443 14.9704C5.66553 16.0887 6.1585 17.6701 7.24644 17.6701C8.33394 17.6701 11.3581 17.6701 11.3581 17.6701C11.3581 17.6701 14.3822 17.6701 15.4697 17.6701C16.5577 17.6701 17.0506 16.0887 16.4212 14.9704C15.9479 14.1276 15.171 13.1729 13.9066 12.6305Z" fill="#4B4B4B"/>
<path d="M11.358 12.3764C13.2152 12.3764 14.7204 10.8708 14.7204 9.01401V8.20859C14.7204 6.35137 13.2152 4.84619 11.358 4.84619C9.50078 4.84619 7.99561 6.35137 7.99561 8.20859V9.01401C7.99561 10.8708 9.50078 12.3764 11.358 12.3764Z" fill="#4B4B4B"/>
<path d="M24.2834 22.0785L20.5805 18.471C23.7673 14.0371 23.3706 7.80481 19.3865 3.82073C14.9593 -0.606909 7.75672 -0.606909 3.32957 3.82073C-1.09807 8.24788 -1.09807 15.4513 3.32913 19.8784C7.31414 23.8631 13.5464 24.2593 17.9812 21.0712L21.5874 24.7736C22.3513 25.6958 23.4794 25.7502 24.3512 24.878C25.2243 24.007 25.2051 22.842 24.2834 22.0785ZM4.9056 18.3016C1.34266 14.7383 1.34266 8.96062 4.9056 5.39807C8.46898 1.83469 14.2462 1.83469 17.8096 5.39807C21.3726 8.96106 21.373 14.7383 17.81 18.302C14.2471 21.8645 8.46898 21.8645 4.9056 18.3016Z" fill="#4B4B4B"/>
</g>
<defs>
<clipPath id="clip0_29_34">
<rect width="25" height="25" fill="white" transform="translate(0 0.5)"/>
</clipPath>
</defs>
</svg>
