<svg width="25" height="23" viewBox="0 0 25 23" fill="none" xmlns="http://www.w3.org/2000/svg">
<path d="M15.6241 5.954C16.6898 5.954 17.5539 5.08965 17.5539 4.02388C17.5539 2.95806 16.6899 2.09375 15.6241 2.09375C14.5583 2.09375 13.6943 2.95806 13.6943 4.02388C13.6943 5.08965 14.5583 5.954 15.6241 5.954Z" fill="#4B4B4B"/>
<path d="M24.581 18.4367L21.7436 16.6229L19.4577 13.031L18.7051 8.78458L21.1533 8.55733L23.2602 9.92032C23.5433 10.1028 23.9173 10.0515 24.1393 9.79796L24.1514 9.7835C24.3977 9.50299 24.3719 9.07652 24.0925 8.82833L22.2069 7.15216C22.0036 6.97159 21.7435 6.86749 21.4714 6.85679L16.7666 6.59493C16.6215 6.58658 16.4865 6.59757 16.4865 6.59757C16.4261 6.6025 16.3649 6.61046 16.304 6.61998C15.9612 6.67891 15.6533 6.82105 15.3975 7.021L11.9375 9.11036L9.75844 7.89063C9.42055 7.70133 8.99292 7.81383 8.7915 8.14527L8.7645 8.19049C8.66494 8.35504 8.63452 8.55157 8.68051 8.73819C8.72724 8.92369 8.84545 9.08409 9.01079 9.18214L11.6076 10.7321C11.9303 10.9252 12.3244 10.9602 12.6768 10.8272L14.868 9.99854L15.597 12.94L12.5198 12.9282C12.1108 12.9267 11.7235 13.1084 11.4631 13.4224C11.2024 13.7374 11.0971 14.1518 11.1747 14.5527L11.9899 18.752C12.0804 19.2172 12.5209 19.5285 12.9896 19.4582L13.0246 19.4529C13.4887 19.3834 13.8171 18.9649 13.7745 18.4973L13.4985 15.4885L17.7807 15.6238L19.7864 17.6455C20.0658 17.9264 20.3851 18.1667 20.7332 18.3567L23.7128 19.9835C24.1305 20.1997 24.644 20.0451 24.8728 19.6346L24.8895 19.6065C25.1177 19.1961 24.9815 18.6799 24.581 18.4367Z" fill="#4B4B4B"/>
<path d="M6.00088 4.29893L2.01143 1.57441H12.2101V0.0175781H0V20.2567H2.01143L6.00088 22.9813V22.2028V20.2567H10.8653V18.6999H6.00088V4.29893Z" fill="#4B4B4B"/>
</svg>
