<svg width="32" height="32" viewBox="0 0 32 32" fill="none" xmlns="http://www.w3.org/2000/svg">
<rect width="32" height="31.9996" />
<path d="M32 15.9996L28.0439 12.7726L29.8564 7.99981L24.8164 7.18281L23.9998 2.14319L19.2275 3.95619L16 0L15.4323 0.695625L12.7726 3.95625L8.00062 2.14363L7.18363 7.18325L2.144 7.99981L3.95619 12.7726L0 15.9992L3.95619 19.2263L2.144 23.9994L7.18363 24.8164L8.00025 29.856L12.7726 28.0434L16 31.9996L19.2274 28.0434L24.0002 29.856L24.8163 24.8164L29.8564 23.9994L28.0438 19.2263L32 15.9996ZM23.5396 23.5396L22.8412 27.8493L18.7599 26.2991L16 29.6823L13.2401 26.2992L9.15888 27.8489L8.46044 23.5397L4.15075 22.8408L5.7005 18.7588L2.31737 15.9997L5.7005 13.2398L4.15075 9.15856L8.46044 8.46013L9.15888 4.15038L13.2401 5.70056L16 2.31775L18.7599 5.7005L22.8411 4.15031L23.5396 8.46006L27.8496 9.1585L26.2994 13.2398L29.6826 15.9996L26.2994 18.7588L27.8496 22.8408L23.5396 23.5396Z" fill="#dc3545"/>
<path d="M12.1088 14.7868L11.3168 14.9426C11.2751 14.9511 11.2522 14.9843 11.2604 15.0267L11.8497 18.0249L11.8154 18.0319L9.54387 15.3644C9.5063 15.3206 9.46049 15.3075 9.41143 15.3174L8.57037 15.4829C8.52862 15.491 8.5058 15.5241 8.51474 15.5666L9.42368 20.1898C9.43187 20.2319 9.46537 20.2548 9.50705 20.2466L10.2991 20.0908C10.3408 20.0823 10.3637 20.0487 10.3556 20.0066L9.76699 17.0154L9.80212 17.0085L12.0786 19.6679C12.1161 19.7116 12.1554 19.7255 12.2117 19.7149L13.0455 19.5506C13.0872 19.5424 13.1101 19.5089 13.1011 19.4664L12.1922 14.8433C12.184 14.8008 12.1505 14.7787 12.1088 14.7868Z" fill="#dc3545"/>
<path d="M16.9772 17.8518L14.9239 18.2555C14.8961 18.2613 14.879 18.2502 14.8741 18.222L14.6795 17.2342C14.6738 17.2064 14.6853 17.1897 14.713 17.184L16.4229 16.8476C16.4646 16.8394 16.4875 16.8064 16.4794 16.7642L16.3331 16.0216C16.3249 15.9799 16.2914 15.957 16.2497 15.9652L14.5397 16.3016C14.5119 16.3069 14.4948 16.2955 14.489 16.2677L14.3035 15.3219C14.2978 15.2938 14.3092 15.277 14.337 15.2717L16.3903 14.8679C16.4319 14.8597 16.4548 14.8262 16.4458 14.7842L16.2987 14.035C16.2905 13.9925 16.2569 13.97 16.2153 13.9782L13.1607 14.579C13.1182 14.5872 13.0961 14.6207 13.1043 14.6632L14.0133 19.2864C14.0223 19.3285 14.0549 19.3509 14.0974 19.3427L17.152 18.7419C17.1937 18.7338 17.2166 18.7002 17.2076 18.6582L17.0604 17.9086C17.0524 17.8665 17.0189 17.8436 16.9772 17.8518Z" fill="#dc3545"/>
<path d="M22.5142 12.7404L21.6175 12.9165C21.5685 12.9259 21.5447 12.9529 21.5472 13.0036L21.4769 16.1236L21.4622 16.1264L20.0342 13.3012C20.0113 13.2611 19.9778 13.2391 19.9361 13.2473L19.3263 13.367C19.2781 13.3768 19.2552 13.4099 19.2494 13.4553L19.0247 16.6059L19.0108 16.6088L17.7357 13.7528C17.721 13.7115 17.6874 13.6894 17.6384 13.6993L16.7344 13.8766C16.6854 13.8864 16.6772 13.9171 16.6927 13.9579L18.8342 18.3388C18.8571 18.378 18.8906 18.4009 18.9324 18.3927L19.6329 18.2546C19.6819 18.2452 19.7047 18.2113 19.7105 18.1667L19.9614 15.0398L19.9753 15.0369L21.3845 17.8373C21.4066 17.8766 21.4401 17.8994 21.4891 17.8896L22.1896 17.7519C22.2387 17.7425 22.2681 17.7074 22.2673 17.6636L22.5836 12.7993C22.582 12.7555 22.5632 12.7306 22.5142 12.7404Z" fill="#dc3545"/>
</svg>
