<svg width="25" height="26" viewBox="0 0 25 26" fill="none" xmlns="http://www.w3.org/2000/svg">
<g clip-path="url(#clip0_15_193)">
<path d="M21.3386 4.16104C19.0805 1.90068 15.9482 0.499317 12.5 0.5C9.05181 0.499317 5.91948 1.90068 3.66104 4.16104C1.40107 6.41914 -0.000732135 9.55181 2.86869e-07 13C-0.000732135 16.4479 1.40107 19.5802 3.66104 21.8386C5.91948 24.0993 9.05181 25.5004 12.5 25.5C15.9482 25.5004 19.0805 24.0993 21.3386 21.8386C23.5993 19.5802 25.0007 16.4479 25 13C25.0007 9.55181 23.5993 6.41914 21.3386 4.16104ZM19.7051 20.2047C17.8569 22.0503 15.3171 23.1887 12.5 23.1891C9.68291 23.1887 7.14312 22.0503 5.29492 20.2047C3.44966 18.3572 2.31133 15.8175 2.3106 13C2.31128 10.1825 3.44966 7.64277 5.29492 5.79531C7.14312 3.94966 9.68291 2.81167 12.5 2.81099C15.3171 2.81167 17.8569 3.94966 19.7051 5.79531C21.5503 7.64277 22.6887 10.1826 22.6894 13C22.6887 15.8175 21.5503 18.3572 19.7051 20.2047Z" fill="#4B4B4B"/>
<path d="M12.2897 9.98867C13.3337 9.98867 14.181 9.14185 14.181 8.09785C14.181 7.05313 13.3337 6.20703 12.2897 6.20703C11.2458 6.20703 10.3989 7.05313 10.3989 8.09785C10.3989 9.14189 11.2458 9.98867 12.2897 9.98867Z" fill="#4B4B4B"/>
<path d="M14.6075 18.2151H14.3506C14.0875 18.2151 13.874 18.0023 13.874 17.7393V11.0826C13.874 10.9952 13.8281 10.9135 13.7534 10.8687C13.6787 10.8231 13.5854 10.821 13.5081 10.8618L10.2589 12.6677C9.31366 13.1403 9.76728 13.7048 10.1193 13.6902C10.471 13.6763 11.5197 13.5725 11.5197 13.5725V17.7393C11.5197 18.0024 11.3061 18.2152 11.0431 18.2152H10.5384C10.4072 18.2152 10.3001 18.3223 10.3001 18.4535V19.4927C10.3001 19.6239 10.4072 19.731 10.5384 19.731H14.6075C14.7391 19.731 14.8458 19.6239 14.8458 19.4927V18.4535C14.8458 18.3223 14.7391 18.2151 14.6075 18.2151Z" fill="#4B4B4B"/>
</g>
<defs>
<clipPath id="clip0_15_193">
<rect width="25" height="25" fill="white" transform="translate(0 0.5)"/>
</clipPath>
</defs>
</svg>
