<svg width="25" height="26" viewBox="0 0 25 26" fill="none" xmlns="http://www.w3.org/2000/svg">
<g clip-path="url(#clip0_15_228)">
<path d="M20.5071 11.9575H9.74023V12.8619H20.5071V11.9575Z" fill="#4B4B4B"/>
<path d="M19.5783 15.5328H8.81152V16.4377H19.5783V15.5328Z" fill="#4B4B4B"/>
<path d="M24.965 2.28722V1.70538H6.744V2.28722C6.744 3.48883 6.77739 4.74493 6.77739 6.04913C6.77739 7.95118 6.70732 9.95504 6.36826 12.0412C6.0457 14.0251 5.48081 16.0838 4.50039 18.2063H2.74653C2.43662 18.2063 2.12373 18.2562 1.82188 18.3609C1.36968 18.5179 0.941554 18.8046 0.617286 19.226C0.292189 19.6465 0.0777356 20.1933 0.013966 20.838C0.0046887 20.9313 1.19922e-06 21.0241 1.19922e-06 21.1162C-0.000438254 21.5836 0.119923 22.0244 0.32256 22.4107C0.626954 22.9917 1.10786 23.4531 1.66646 23.7753C2.22593 24.097 2.86763 24.2823 3.52119 24.287L17.3727 24.2946C17.9 24.2959 18.3573 24.1882 18.7466 24.0113C19.1363 23.8353 19.4542 23.6013 19.7494 23.3662C20.9561 22.4052 21.8883 21.2142 22.6039 19.8922C23.6776 17.907 24.2704 15.6262 24.6018 13.307C24.9324 10.9878 24.9996 8.62677 25 6.4777C25 4.93868 24.965 3.50782 24.965 2.28722ZM3.52759 23.1238H3.52803C3.23921 23.1225 2.93984 23.0655 2.65654 22.9596C2.23101 22.8017 1.84507 22.534 1.57949 22.211C1.44609 22.0493 1.34224 21.8745 1.27129 21.6921C1.20083 21.5093 1.16318 21.3189 1.16318 21.1162C1.16318 21.063 1.16572 21.009 1.17124 20.9541C1.20205 20.6467 1.27593 20.4006 1.37388 20.2018C1.52163 19.9045 1.72139 19.7069 1.95698 19.5714C2.19214 19.4371 2.46782 19.3763 2.74653 19.3763H15.2119C15.0768 19.5313 14.9565 19.7086 14.8602 19.9091C14.7184 20.203 14.6234 20.5442 14.5849 20.928C14.5765 21.0153 14.5722 21.1011 14.5722 21.1863C14.5722 21.5925 14.6693 21.9772 14.8382 22.3188C14.9902 22.6257 15.1992 22.8985 15.447 23.1307L3.52759 23.1238ZM23.0427 15.3386C22.707 16.7721 22.2354 18.1303 21.581 19.3387C20.9266 20.547 20.0927 21.6051 19.0245 22.4567C18.7551 22.672 18.5182 22.8388 18.2687 22.9507C18.0179 23.0626 17.7507 23.1301 17.3732 23.1314L16.9848 23.131C16.6331 23.0313 16.3067 22.8553 16.0411 22.6239C15.8266 22.4377 15.6531 22.2173 15.5336 21.975C15.4142 21.7326 15.3478 21.4692 15.3478 21.1863C15.3478 21.1272 15.3503 21.0668 15.3567 21.0056C15.3871 20.7012 15.4597 20.4508 15.5585 20.2456C15.7076 19.9383 15.9128 19.7293 16.15 19.5887C16.3869 19.4489 16.6592 19.3809 16.9311 19.3814C17.2056 19.3805 17.4774 19.4515 17.7025 19.5777C17.9284 19.7048 18.1053 19.8834 18.2125 20.1059C18.2691 20.2233 18.3041 20.3799 18.3041 20.5379C18.3041 20.6674 18.281 20.7963 18.2387 20.9039C18.1969 21.0124 18.1374 21.0973 18.0681 21.1564C17.9381 21.2657 17.8055 21.3071 17.6716 21.308C17.5551 21.308 17.4386 21.2729 17.3415 21.21C17.2436 21.1475 17.1675 21.0597 17.1228 20.9554L16.4101 21.2611C16.519 21.5157 16.7022 21.7213 16.9227 21.8628C17.1426 22.0042 17.4019 22.0832 17.6716 22.0832C17.9803 22.0844 18.3041 21.9751 18.5709 21.7466C18.7538 21.5904 18.8804 21.3928 18.9615 21.1847C19.0421 20.9765 19.0789 20.7561 19.0789 20.5379C19.0789 20.2727 19.0252 20.0089 18.9112 19.7703C18.7284 19.3899 18.4291 19.0964 18.082 18.9018C17.7417 18.7113 17.3533 18.6117 16.9585 18.6067V18.6007H5.60059C6.60293 16.4048 7.18477 14.2693 7.51616 12.2278C7.86997 10.0501 7.94004 7.97916 7.94004 6.04923C7.94004 4.93966 7.91768 3.87907 7.9105 2.86871H23.8047C23.8123 3.96769 23.8368 5.1879 23.8368 6.47775C23.8377 9.30944 23.7148 12.4718 23.0427 15.3386Z" fill="#4B4B4B"/>
<path d="M16.1701 9.69622C16.3065 8.17624 16.3132 6.72131 16.2993 5.34534H10.2756C10.2895 6.72131 10.2823 8.17624 10.146 9.69622H16.1701Z" fill="#4B4B4B"/>
</g>
<defs>
<clipPath id="clip0_15_228">
<rect width="25" height="25" fill="white" transform="translate(0 0.5)"/>
</clipPath>
</defs>
</svg>
