<svg width="25" height="26" viewBox="0 0 25 26" fill="none" xmlns="http://www.w3.org/2000/svg">
<g clip-path="url(#clip0_21_52)">
<path d="M24.3876 10.7541L21.6605 10.6281C21.4114 10.6169 21.1914 10.4624 21.0968 10.2325L20.5349 8.88018C20.4403 8.64932 20.4862 8.38481 20.6547 8.20078L22.494 6.18262C22.7244 5.9293 22.716 5.53784 22.4734 5.29482L20.2062 3.0271C19.9627 2.78457 19.5712 2.7752 19.3175 3.00698L17.3003 4.84624C17.1158 5.01436 16.8508 5.06118 16.6204 4.96519L15.2682 4.40425C15.0378 4.30923 14.8842 4.08911 14.8729 3.83955L14.7465 1.11343C14.7305 0.770215 14.4477 0.5 14.105 0.5H10.8966C10.5538 0.5 10.2701 0.770215 10.2542 1.11338L10.1287 3.8395C10.1174 4.08906 9.96382 4.30913 9.73345 4.4042L8.38115 4.96519C8.14985 5.06118 7.88481 5.01436 7.70127 4.84624L5.68315 3.00698C5.42935 2.77524 5.03789 2.78413 4.79443 3.0271L2.52808 5.29482C2.28462 5.53784 2.27622 5.9293 2.50747 6.18262L4.34673 8.20078C4.51528 8.38481 4.56025 8.64932 4.4647 8.88018L3.90469 10.2325C3.80918 10.4624 3.59004 10.6169 3.34004 10.6281L0.613867 10.7541C0.271143 10.7695 0.000488281 11.0528 0.000488281 11.396V14.604C0.000488281 14.9467 0.271143 15.2305 0.613867 15.246L3.34004 15.3719C3.59004 15.3831 3.80918 15.5376 3.90469 15.7676L4.4647 17.1198C4.56025 17.3507 4.51528 17.6152 4.34673 17.7992L2.50747 19.8165C2.27524 20.0712 2.28462 20.4622 2.52715 20.7052L4.79624 22.9729C5.03877 23.2159 5.4293 23.2244 5.68403 22.9935L7.70122 21.1538C7.88477 20.9857 8.15078 20.9394 8.3811 21.0349L9.73335 21.5954C9.96377 21.6909 10.1173 21.911 10.1286 22.1605L10.2541 24.8867C10.27 25.2294 10.5537 25.5 10.8965 25.5H14.1049C14.4477 25.5 14.7305 25.2294 14.7464 24.8867L14.8728 22.1605C14.884 21.911 15.0376 21.6909 15.268 21.5954L16.6203 21.0349C16.8506 20.9394 17.1157 20.9857 17.3001 21.1538L19.3173 22.9935C19.5711 23.2244 19.9626 23.2159 20.206 22.9729L22.4733 20.7052C22.7158 20.4622 22.7242 20.0712 22.4938 19.8165L20.6546 17.7992C20.486 17.6152 20.4392 17.3507 20.5347 17.1198L21.0966 15.7676C21.1912 15.5376 21.4113 15.3831 21.6604 15.3719L24.3875 15.246C24.7302 15.2305 24.9999 14.9467 24.9999 14.604V11.396C25 11.0528 24.7304 10.7695 24.3876 10.7541ZM12.5008 17.0829C10.2467 17.0829 8.41768 15.2549 8.41768 13.0003C8.41768 10.7452 10.2467 8.91719 12.5008 8.91719C14.7549 8.91719 16.5829 10.7452 16.5829 13.0003C16.5829 15.2548 14.7549 17.0829 12.5008 17.0829Z" fill="#4B4B4B"/>
</g>
<defs>
<clipPath id="clip0_21_52">
<rect width="25" height="25" fill="white" transform="translate(0 0.5)"/>
</clipPath>
</defs>
</svg>
